<svg width="16" height="16" viewBox="0 0 16 16" fill="none" xmlns="http://www.w3.org/2000/svg">
<path d="M5.99128 13.1195L11.2891 7.99948L5.99128 2.87948C5.6906 2.58983 5.21204 2.59879 4.9224 2.89948C4.63275 3.20016 4.64171 3.67872 4.9424 3.96836L9.11573 7.99948L4.9424 12.035C4.64171 12.3247 4.63275 12.8032 4.9224 13.1039C5.21204 13.4046 5.6906 13.4136 5.99128 13.1239V13.1195Z" fill="black"/>
<mask id="mask0" mask-type="alpha" maskUnits="userSpaceOnUse" x="4" y="2" width="8" height="12">
<path d="M5.99128 13.1195L11.2891 7.99948L5.99128 2.87948C5.6906 2.58983 5.21204 2.59879 4.9224 2.89948C4.63275 3.20016 4.64171 3.67872 4.9424 3.96836L9.11573 7.99948L4.9424 12.035C4.64171 12.3247 4.63275 12.8032 4.9224 13.1039C5.21204 13.4046 5.6906 13.4136 5.99128 13.1239V13.1195Z" fill="white"/>
</mask>
<g mask="url(#mask0)">
<rect x="16" width="16" height="16" transform="rotate(90 16 0)" fill="#737373"/>
</g>
</svg>
